<?xml version="1.0" standalone="no"?>
<!DOCTYPE svg PUBLIC "-//W3C//DTD SVG 20010904//EN"
 "http://www.w3.org/TR/2001/REC-SVG-20010904/DTD/svg10.dtd">
<svg version="1.0" xmlns="http://www.w3.org/2000/svg"
 width="192.000000pt" height="192.000000pt" viewBox="0 0 192.000000 192.000000"
 preserveAspectRatio="xMidYMid meet">
<metadata>
Created by potrace 1.14, written by Peter Selinger 2001-2017
</metadata>
<g transform="translate(0.000000,192.000000) scale(0.100000,-0.100000)"
fill="#000000" stroke="none">
<path d="M518 1463 c-16 -2 -28 -9 -28 -14 0 -5 -6 -9 -14 -9 -29 0 -54 -52
-50 -104 2 -39 9 -53 35 -77 18 -16 41 -31 51 -35 10 -3 18 -10 18 -15 0 -6 4
-8 9 -4 17 10 79 -30 94 -60 16 -34 9 -50 -29 -71 -36 -21 -113 -4 -149 32
-30 31 -44 26 -41 -14 1 -21 6 -44 11 -52 14 -22 56 -41 93 -42 18 -1 29 -5
25 -11 -3 -6 -1 -7 5 -3 6 3 30 9 54 12 80 11 124 51 133 122 6 53 -35 110
-102 143 -26 13 -50 24 -53 24 -25 4 -50 19 -50 31 0 8 -4 14 -10 14 -17 0
-11 29 10 50 24 24 92 20 132 -10 41 -30 50 -26 46 22 -2 36 -8 45 -31 56 -31
15 -116 23 -159 15z"/>
<path d="M726 1433 c1 -16 3 -32 3 -36 1 -5 33 -7 71 -5 42 2 71 -1 71 -7 1
-5 2 -93 3 -195 l1 -185 38 -6 c22 -3 40 -2 44 5 4 6 7 95 6 198 l-1 187 77 3
c66 3 76 5 75 21 -3 31 13 14 79 -85 l65 -97 -70 -103 c-39 -57 -72 -109 -75
-115 -4 -9 8 -13 39 -13 46 0 79 22 84 57 2 9 7 19 11 22 5 3 20 23 32 45 l24
38 40 -63 c22 -35 44 -66 49 -67 4 -2 6 -8 2 -13 -11 -18 58 -32 87 -17 14 6
7 22 -47 105 -35 54 -68 103 -73 109 -6 7 -4 20 4 35 8 13 21 39 30 57 10 17
21 32 25 32 4 0 15 16 24 35 9 19 22 35 28 35 6 0 8 3 5 7 -4 3 1 15 10 25 17
19 16 19 -36 16 -42 -2 -56 -8 -65 -23 -6 -11 -13 -22 -16 -25 -8 -8 -28 -41
-46 -77 -9 -18 -17 -33 -19 -33 -1 0 -24 36 -51 80 l-48 80 -241 0 -241 0 2
-27z"/>
<path d="M823 842 c-3 -7 -3 -16 1 -19 3 -3 1 -12 -5 -20 -8 -8 -8 -13 -1 -13
13 0 4 -63 -11 -72 -6 -4 -16 -3 -22 2 -19 16 -49 -13 -41 -38 6 -18 11 -20
31 -12 15 6 27 6 30 -1 4 -5 10 -7 14 -4 5 2 7 -21 5 -53 -5 -74 3 -87 42 -70
29 13 29 14 27 87 -1 41 -4 83 -6 93 -3 10 0 18 6 18 8 0 7 4 -2 9 -7 5 -9 11
-4 14 5 3 7 25 4 48 -5 38 -9 42 -35 44 -15 0 -31 -5 -33 -13z"/>
<path d="M1289 846 c-1 -6 -1 -14 0 -18 0 -5 -4 -8 -10 -8 -8 0 -8 -4 0 -14
15 -18 -11 -34 -51 -31 -16 1 -28 -1 -29 -4 0 -3 -2 -14 -4 -23 -3 -18 0 -19
53 -21 29 -1 45 -15 34 -31 -13 -22 -7 -43 15 -53 15 -7 23 -8 23 -1 0 6 6 5
15 -2 13 -10 15 -9 16 11 1 29 1 181 0 190 -2 12 -61 16 -62 5z"/>
<path d="M1080 848 c-6 -22 -8 -30 -9 -52 0 -14 -8 -31 -16 -40 -8 -8 -15 -19
-15 -25 0 -5 -9 -13 -20 -16 -11 -3 -20 -10 -20 -15 0 -4 -11 -11 -25 -14 -27
-7 -35 -36 -10 -36 8 0 15 -4 15 -9 0 -21 59 7 98 46 22 22 26 23 46 9 61 -44
82 -53 104 -45 35 13 23 47 -19 53 -3 1 -20 13 -38 28 -24 21 -32 35 -31 55 4
51 1 56 -25 51 -13 -3 -26 0 -29 6 -2 6 -5 8 -6 4z"/>
<path d="M532 822 c-5 -1 -7 -14 -4 -28 4 -23 7 -24 61 -21 60 5 94 -3 90 -18
-5 -17 -41 -58 -76 -86 -20 -17 -83 -42 -83 -33 0 3 -6 -1 -14 -8 -11 -10 -9
-15 10 -30 12 -10 26 -18 31 -18 19 0 110 55 133 80 51 57 66 77 62 89 -2 6 0
17 5 24 5 7 9 21 9 32 -1 19 -8 20 -108 20 -59 0 -111 -1 -116 -3z"/>
<path d="M1220 635 c0 -6 -34 -10 -85 -9 -73 1 -87 -2 -95 -17 -15 -28 5 -33
123 -34 64 0 107 -4 107 -10 0 -6 -45 -10 -115 -9 -91 1 -115 -1 -116 -12 0
-8 -1 -30 -1 -49 0 -19 1 -39 1 -45 1 -6 62 -10 161 -10 l160 0 0 24 c0 23 0
23 -122 22 -87 0 -123 3 -126 12 -3 9 26 12 116 12 65 0 122 3 125 7 4 3 2 12
-4 20 -6 7 -8 13 -3 13 5 0 9 16 9 35 0 38 2 37 -90 39 -16 0 -33 5 -37 11 -5
6 -8 6 -8 0z"/>
<path d="M609 572 c-26 -3 -47 -37 -28 -44 4 -2 4 -20 0 -40 -7 -29 -5 -38 6
-42 8 -3 81 -6 163 -6 141 0 148 1 153 21 8 28 -8 32 -137 33 l-111 1 -3 35
c-4 42 -9 47 -43 42z"/>
</g>
</svg>
